<?xml version="1.0" encoding="UTF-8" standalone="no"?> <svg xmlns="http://www.w3.org/2000/svg" viewBox="0 0 64 64"><title>1</title><g id="Layer_12" data-name="Layer 12"><path d="M56.56,9.08a2,2,0,0,0-2-2,24.41,24.41,0,0,0-11.7,3,11.35,11.35,0,0,0-21.71,0,24.41,24.41,0,0,0-11.7-3,2,2,0,0,0-2,2A24.59,24.59,0,0,0,30,33.55V49.9a14.78,14.78,0,0,0-10.83-4.73,2,2,0,0,0-2,2A14.85,14.85,0,0,0,32,62a2,2,0,0,0,2-2V52A14.84,14.84,0,0,0,46.83,37.33a2,2,0,0,0-2-2A14.78,14.78,0,0,0,34,40.06V33.55A24.59,24.59,0,0,0,56.56,9.08ZM34.11,29.53A20.6,20.6,0,0,1,52.45,11.19,20.6,20.6,0,0,1,34.11,29.53ZM32,6a7.36,7.36,0,0,1,7.28,6.43A24.69,24.69,0,0,0,32,21.94a24.69,24.69,0,0,0-7.29-9.51A7.36,7.36,0,0,1,32,6ZM11.55,11.19A20.6,20.6,0,0,1,29.89,29.53,20.6,20.6,0,0,1,11.55,11.19ZM21.4,49.4a10.86,10.86,0,0,1,8.36,8.36A10.86,10.86,0,0,1,21.4,49.4Zm21.2-9.84a10.86,10.86,0,0,1-8.36,8.36A10.86,10.86,0,0,1,42.6,39.56Z"/></g></svg>