<?xml version="1.0" encoding="utf-8"?>
<!-- Generator: Adobe Illustrator 23.0.2, SVG Export Plug-In . SVG Version: 6.00 Build 0)  -->
<svg version="1.1" id="Layer_1" xmlns="http://www.w3.org/2000/svg" xmlns:xlink="http://www.w3.org/1999/xlink" x="0px" y="0px"
	 viewBox="0 0 116.9981 237.1827" enable-background="new 0 0 116.9981 237.1827" xml:space="preserve">
<g>
	<path d="M66.9919,45c11.399,0,20.8093-8.4758,22.29-19.4688c-2.0287-0.1033-4.169-0.3218-6.3701-0.664
		c-11.5201-1.7909-20.4006-6.3041-20.1456-10.17c1.524,3.4597,10.4419,6.1193,21.247,6.1193c8.1539,0,15.2469-1.5134,18.8919-3.7429
		c1.6631-1.0172,2.6091-2.1833,2.6091-3.4232c0-3.959-9.6269-7.1679-21.501-7.1679c-0.4063,0-0.8027,0.0129-1.2034,0.0203
		C78.7459,2.4836,73.1601,0,66.9919,0c-12.4258,0-22.5,10.0743-22.5,22.5C44.4919,34.9278,54.5662,45,66.9919,45z"/>
	<path d="M32.3091,154.3124l7.637-9.304v79.811c0,6.8301,5.5371,12.3633,12.3632,12.3633c6.8282,0,12.3653-5.5332,12.3653-12.3633
		v-90.2715h4.6347v90.2715c0,6.8301,5.537,12.3633,12.3633,12.3633c6.8281,0,12.3653-5.5332,12.3653-12.3633V74.7935
		c4.4703,9.2982,8.4516,28.0287,6.3962,63.1649c-0.2578,4.4106,3.1084,8.1958,7.519,8.4536
		c0.1592,0.0093,0.3174,0.0137,0.4746,0.0137c4.2046,0,7.7305-3.2813,7.979-7.5327c2.4717-42.2476-2.8125-69.811-15.7056-81.9248
		c-5.6088-5.2701-11.0886-6.178-13.9052-6.2452c-0.1618-0.0101-0.3224-0.0246-0.4868-0.0246H47.6746
		c-0.1627,0-0.3217,0.0145-0.4819,0.0244c-2.8142,0.0656-8.2975,0.9697-13.9114,6.2445
		c-9.2568,8.698-14.5909,25.3622-15.9482,49.7076L0,127.7928L32.3091,154.3124z M39.946,88.1611l-3.5798-2.9383
		c1.0674-4.355,2.3035-7.778,3.5798-10.4323V88.1611z M35.9302,88.746l27.6719,22.7134l-31.7085,38.6304l-4.6838-3.8445
		c3.8135-0.7989,6.5737-4.28,6.3395-8.2868c-1.2963-22.1603-0.1913-37.7949,1.9229-48.6544L35.9302,88.746z M17.5457,138.3127
		L4.2227,127.3768l12.8968-15.7128C16.8555,119.7696,16.9952,128.6519,17.5457,138.3127z M66.9911,125.3422l-5.3527-6.7612
		l6.1863-7.5366l-9.0175-7.4017l4.1553-30.6218c1.2974,0.4863,2.662,0.7402,4.0266,0.7394h0.002h0.0058
		c1.3631,0,2.7254-0.2543,4.0208-0.7404l5.4734,40.3224L66.9911,125.3422z M63.1903,60.8422h3.8008h3.7988l1.9004,7.5l-0.2889,0.456
		c-1.566,1.3056-3.4843,1.9603-5.4124,1.962c-1.9277-0.0018-3.8428-0.6549-5.4076-1.9578l-0.2916-0.4603L63.1903,60.8422z"/>
</g>
</svg>
